<svg width="20" height="20" viewBox="0 0 20 20" fill="none" xmlns="http://www.w3.org/2000/svg">
<path d="M10 20C12.6522 20 15.1957 18.9464 17.0711 17.0711C18.9464 15.1957 20 12.6522 20 10C20 7.34784 18.9464 4.8043 17.0711 2.92893C15.1957 1.05357 12.6522 0 10 0C7.34784 0 4.8043 1.05357 2.92893 2.92893C1.05357 4.8043 0 7.34784 0 10C0 12.6522 1.05357 15.1957 2.92893 17.0711C4.8043 18.9464 7.34784 20 10 20ZM6.25 13.125H13.75C14.0938 13.125 14.375 13.4062 14.375 13.75C14.375 14.0938 14.0938 14.375 13.75 14.375H6.25C5.90625 14.375 5.625 14.0938 5.625 13.75C5.625 13.4062 5.90625 13.125 6.25 13.125ZM5 8.125C5 7.78125 5.28125 7.5 5.625 7.5H8.125C8.46875 7.5 8.75 7.78125 8.75 8.125C8.75 8.46875 8.46875 8.75 8.125 8.75H5.625C5.28125 8.75 5 8.46875 5 8.125ZM11.875 7.5H14.375C14.7188 7.5 15 7.78125 15 8.125C15 8.46875 14.7188 8.75 14.375 8.75H11.875C11.5312 8.75 11.25 8.46875 11.25 8.125C11.25 7.78125 11.5312 7.5 11.875 7.5Z" fill="white"/>
</svg>
