<svg width="28" height="28" viewBox="0 0 28 28" fill="none" xmlns="http://www.w3.org/2000/svg">
<g clip-path="url(#clip0_344_681)">
<path d="M7.65715 11.8473C8.21331 5.74874 14.2064 1.74529 20.059 3.56364C20.8611 3.8129 22.2484 4.486 21.9059 4.45964C19.8586 4.30482 18.4712 4.67596 17.1513 5.73227C14.2344 8.0667 14.179 12.5176 17.0372 14.9196C20.1495 17.5356 24.9299 16.347 26.4479 12.5796L26.7048 11.9411C26.8454 16.9883 23.7577 20.9011 19.3897 21.9761C18.4975 22.1957 18.447 22.2018 17.3902 22.2182C16.4277 22.2336 16.2213 22.2199 15.5542 22.0991C10.629 21.2064 7.2086 16.7665 7.65715 11.8473Z" fill="white" fill-opacity="0.988235"/>
<path d="M2.19333 8.72949C3.60157 5.01592 7.10761 1.63396 10.651 0.571609C11.1725 0.415138 11.1725 0.415138 10.4039 0.88455C4.3691 4.56628 2.26086 12.2536 5.55718 18.5569C9.32894 25.7694 18.6958 27.9073 25.3087 23.066L26.1059 22.4824C23.6199 25.4532 20.1551 27.2578 16.7753 27.6191C16.2301 27.6773 15.4939 27.725 15.1392 27.7256C14.7845 27.7256 14.0818 27.6751 13.5773 27.6136C4.50141 26.5062 -1.05357 17.2915 2.19333 8.72949Z" fill="#FCFCFC" fill-opacity="0.988235"/>
</g>
<defs>
<clipPath id="clip0_344_681">
<rect width="28" height="28" fill="white"/>
</clipPath>
</defs>
</svg>
