<svg width="20" height="20" viewBox="0 0 20 20" fill="none" xmlns="http://www.w3.org/2000/svg">
<path d="M20 2.85714C20 1.28125 18.7188 0 17.1429 0H2.85714C1.28125 0 0 1.28125 0 2.85714V17.1429C0 18.7188 1.28125 20 2.85714 20H17.1429C18.7188 20 20 18.7188 20 17.1429V2.85714ZM11.4286 5.71429C11.4286 6.50446 10.7902 7.14286 10 7.14286H5.71429C4.92411 7.14286 4.28571 6.50446 4.28571 5.71429C4.28571 4.92411 4.92411 4.28571 5.71429 4.28571H10C10.7902 4.28571 11.4286 4.92411 11.4286 5.71429ZM14.2857 8.57143C15.0759 8.57143 15.7143 9.20982 15.7143 10C15.7143 10.7902 15.0759 11.4286 14.2857 11.4286H5.71429C4.92411 11.4286 4.28571 10.7902 4.28571 10C4.28571 9.20982 4.92411 8.57143 5.71429 8.57143H14.2857ZM8.57143 14.2857C8.57143 15.0759 7.93304 15.7143 7.14286 15.7143H5.71429C4.92411 15.7143 4.28571 15.0759 4.28571 14.2857C4.28571 13.4955 4.92411 12.8571 5.71429 12.8571H7.14286C7.93304 12.8571 8.57143 13.4955 8.57143 14.2857Z" fill="#AAAFBE"/>
</svg>
