<svg width="16" height="16" viewBox="0 0 16 16" fill="currentColor" xmlns="http://www.w3.org/2000/svg">
<path d="M8.87046 0.794861C8.70987 0.46189 8.37051 0.25 7.99782 0.25C7.62514 0.25 7.28881 0.46189 7.12519 0.794861L5.17691 4.79959L0.825864 5.44131C0.462267 5.4958 0.159269 5.75007 0.04716 6.09817C-0.0649493 6.44628 0.02595 6.83071 0.286528 7.088L3.44377 10.2088L2.69839 14.6192C2.63779 14.9824 2.78929 15.3517 3.08926 15.5666C3.38923 15.7816 3.78615 15.8088 4.11339 15.6363L8.00085 13.5628L11.8883 15.6363C12.2156 15.8088 12.6125 15.7846 12.9124 15.5666C13.2124 15.3487 13.3639 14.9824 13.3033 14.6192L12.5549 10.2088L15.7121 7.088C15.9727 6.83071 16.0667 6.44628 15.9515 6.09817C15.8364 5.75007 15.5364 5.4958 15.1728 5.44131L10.8187 4.79959L8.87046 0.794861Z" fill="current"/>
</svg>
